HIERARCHY
ROOT joint_Root
{
	OFFSET 0.0 0.0 0.0
	CHANNELS 6 Xposition Yposition Zposition Zrotation Xrotation Yrotation 
	JOINT Hips
	{
		OFFSET 4.5925 91.4895 -427.239
		CHANNELS 6 Xposition Yposition Zposition Zrotation Xrotation Yrotation 
		JOINT Spine
		{
			OFFSET 15.7357 0.0 0.0
			CHANNELS 6 Xposition Yposition Zposition Zrotation Xrotation Yrotation 
			JOINT Chest
			{
				OFFSET 8.98455 -0.406207 0.0
				CHANNELS 6 Xposition Yposition Zposition Zrotation Xrotation Yrotation 
				JOINT Neck
				{
					OFFSET 16.3773 0.0 0.0
					CHANNELS 6 Xposition Yposition Zposition Zrotation Xrotation Yrotation 
					JOINT Head
					{
						OFFSET 6.45672 0.0 0.0
						CHANNELS 6 Xposition Yposition Zposition Zrotation Xrotation Yrotation 
						End Site
						{
							OFFSET 0.0 0.0 0.0
						}
					}
				}
				JOINT Shoulder_L
				{
					OFFSET 12.9942 -0.242716 4.98039
					CHANNELS 6 Xposition Yposition Zposition Zrotation Xrotation Yrotation 
					JOINT UpperArm_L
					{
						OFFSET 5.34809 0.0 0.0
						CHANNELS 6 Xposition Yposition Zposition Zrotation Xrotation Yrotation 
						JOINT LowerArm_L
						{
							OFFSET 24.3286 1.87007e-05 0.0
							CHANNELS 6 Xposition Yposition Zposition Zrotation Xrotation Yrotation 
							JOINT Hand_L
							{
								OFFSET 22.2916 0.0 0.0
								CHANNELS 6 Xposition Yposition Zposition Zrotation Xrotation Yrotation 
								End Site
								{
									OFFSET 0.0 0.0 0.0
								}
							}
						}
					}
				}
				JOINT Shoulder_R
				{
					OFFSET 12.9945 -0.242716 -4.98039
					CHANNELS 6 Xposition Yposition Zposition Zrotation Xrotation Yrotation 
					JOINT UpperArm_R
					{
						OFFSET -5.34813 0.0 0.0
						CHANNELS 6 Xposition Yposition Zposition Zrotation Xrotation Yrotation 
						JOINT LowerArm_R
						{
							OFFSET -24.3289 0.000322201 0.0
							CHANNELS 6 Xposition Yposition Zposition Zrotation Xrotation Yrotation 
							JOINT Hand_R
							{
								OFFSET -22.2915 -0.000108084 0.0
								CHANNELS 6 Xposition Yposition Zposition Zrotation Xrotation Yrotation 
								End Site
								{
									OFFSET 0.0 0.0 0.0
								}
							}
						}
					}
				}
			}
		}
		JOINT UpperLeg_L
		{
			OFFSET -2.19248 -6.46944 0.0
			CHANNELS 6 Xposition Yposition Zposition Zrotation Xrotation Yrotation 
			JOINT LowerLeg_L
			{
				OFFSET 39.0811 0.0 -1.23785e-05
				CHANNELS 6 Xposition Yposition Zposition Zrotation Xrotation Yrotation 
				JOINT Foot_L
				{
					OFFSET 40.9854 0.0 -1.26872e-05
					CHANNELS 6 Xposition Yposition Zposition Zrotation Xrotation Yrotation 
					JOINT Toes_L
					{
						OFFSET 11.7543 0.0 0.0
						CHANNELS 6 Xposition Yposition Zposition Zrotation Xrotation Yrotation 
						End Site
						{
							OFFSET 0.0 0.0 0.0
						}
					}
				}
			}
		}
		JOINT UpperLeg_R
		{
			OFFSET -2.19251 6.46944 0.0
			CHANNELS 6 Xposition Yposition Zposition Zrotation Xrotation Yrotation 
			JOINT LowerLeg_R
			{
				OFFSET -39.0811 -0.00228153 -0.0401928
				CHANNELS 6 Xposition Yposition Zposition Zrotation Xrotation Yrotation 
				JOINT Foot_R
				{
					OFFSET -40.9854 0.0 0.0
					CHANNELS 6 Xposition Yposition Zposition Zrotation Xrotation Yrotation 
					JOINT Toes_R
					{
						OFFSET -11.7543 0.0 0.0
						CHANNELS 6 Xposition Yposition Zposition Zrotation Xrotation Yrotation 
						End Site
						{
							OFFSET 0.0 0.0 0.0
						}
					}
				}
			}
		}
	}
}
MOTION
Frames:	4
Frame Time:	0.0333333
0.000000 0.000000 0.000000 0.000000 0.000000 -0.000000 0.122348 90.524700 -0.529045 88.919100 -1.642380 10.928800 15.735700 0.000005 -0.000001 83.059100 87.001000 -83.609600 8.984550 -0.406207 -0.000000 -1.815130 -0.678631 -1.111560 16.377300 -0.000001 -0.000001 4.824710 -2.645340 2.145590 6.456720 -0.000001 -0.000000 -2.549340 -2.273810 2.604050 12.994200 -0.242716 4.980390 -85.719100 -8.487560 -63.109400 5.348090 -0.000007 -0.000001 -27.957900 -46.404300 -43.822200 24.328600 0.000019 0.000005 2.048070 2.749370 -36.758400 22.291600 -0.000001 0.000005 17.081600 4.785250 11.600500 12.994500 -0.242716 -4.980390 91.867000 -5.452180 -71.067000 -5.348130 -0.000001 -0.000004 -46.175600 -51.135300 -56.121300 -24.328900 0.000322 -0.000009 -20.124700 -25.679700 -40.215000 -22.291500 -0.000108 -0.000004 27.242400 5.055250 6.166090 -2.192480 -6.469440 -0.000000 -174.745000 -10.629700 -0.945610 39.081100 -0.000007 -0.000012 -0.192204 0.296626 32.942300 40.985400 -0.000006 -0.000013 0.589959 4.534080 -71.000400 11.754300 -0.000000 0.000003 -0.000146 -0.001420 -16.631600 -2.192510 6.469440 -0.000001 175.062000 17.950900 -179.773000 -39.081100 -0.002282 -0.040193 -0.022351 0.041024 32.014200 -40.985400 0.000008 0.000006 5.242930 11.024500 -71.507400 -11.754300 -0.000006 -0.000006 -0.002335 -0.032840 -17.908500
0.000000 0.000000 0.000000 0.000000 0.000000 -0.000000 0.078268 90.558700 -0.832448 88.943700 -1.282170 10.668500 15.735700 0.000005 -0.000001 81.717200 86.839800 -82.257600 8.984550 -0.406207 -0.000000 -1.515380 -0.866565 -1.091930 16.377300 -0.000001 -0.000001 4.469550 -2.770650 2.185060 6.456720 -0.000001 -0.000000 -3.977250 -2.552740 2.860590 12.994200 -0.242716 4.980390 -86.764900 -6.481220 -63.396700 5.348090 -0.000007 -0.000001 -31.215000 -45.594100 -38.769300 24.328600 0.000019 0.000005 5.723100 7.937470 -35.970300 22.291600 -0.000001 0.000005 19.010300 4.714150 12.898300 12.994500 -0.242716 -4.980390 91.255900 -3.624830 -70.872900 -5.348130 -0.000001 -0.000004 -45.124900 -50.539400 -48.597800 -24.328900 0.000322 -0.000009 -18.442600 -25.043400 -38.229500 -22.291500 -0.000108 -0.000004 28.176000 4.726080 12.682500 -2.192480 -6.469440 -0.000000 -174.818000 -10.662000 -1.481820 39.081100 -0.000007 -0.000012 -0.182644 0.282242 32.908000 40.985400 -0.000006 -0.000013 0.679301 4.865500 -70.713900 11.754300 -0.000000 0.000003 -0.000146 -0.001422 -16.631600 -2.192510 6.469440 -0.000001 175.109000 18.211500 179.827000 -39.081100 -0.002282 -0.040193 -0.055130 0.093907 31.889500 -40.985400 0.000008 0.000006 4.653100 11.041800 -71.110300 -11.754300 -0.000006 -0.000006 -0.002295 -0.032346 -17.888400
0.000000 0.000000 0.000000 0.000000 0.000000 -0.000000 -0.043780 90.525800 -0.942268 88.943800 -1.002400 10.730600 15.735700 0.000005 -0.000001 79.942000 86.742300 -80.486400 8.984550 -0.406207 -0.000000 -1.355800 -1.094310 -1.101300 16.377300 -0.000001 -0.000001 4.808760 -2.899920 1.948800 6.456720 -0.000001 -0.000000 -4.116880 -3.080410 3.002090 12.994200 -0.242716 4.980390 -86.868400 -5.921570 -62.062500 5.348090 -0.000007 -0.000001 -44.741000 -49.803100 -48.337900 24.328600 0.000019 0.000005 4.235060 6.443110 -33.422000 22.291600 -0.000001 0.000005 21.516300 4.678470 13.538600 12.994500 -0.242716 -4.980390 91.184300 -3.272910 -70.094100 -5.348130 -0.000001 -0.000004 -51.158200 -51.221600 -51.335200 -24.328900 0.000322 -0.000009 -18.564700 -24.939900 -38.535300 -22.291500 -0.000108 -0.000004 30.709300 4.784000 11.625300 -2.192480 -6.469440 -0.000000 -174.673000 -10.814400 -1.631700 39.081100 -0.000007 -0.000012 -0.180380 0.276573 33.112600 40.985400 -0.000006 -0.000013 0.737051 5.317940 -70.700500 11.754300 -0.000000 0.000003 -0.000131 -0.001292 -16.626800 -2.192510 6.469440 -0.000001 175.168000 18.153900 179.772000 -39.081100 -0.002282 -0.040193 -0.083965 0.139516 32.024700 -40.985400 0.000008 0.000006 4.251600 10.799100 -71.042900 -11.754300 -0.000006 -0.000006 -0.002566 -0.035591 -18.020400
0.000000 0.000000 0.000000 0.000000 0.000000 -0.000000 -0.133359 90.483000 -0.926957 88.990000 -0.967338 11.096100 15.735700 0.000005 -0.000001 80.169900 86.761300 -80.751100 8.984550 -0.406207 -0.000000 -1.388860 -1.059210 -1.174850 16.377300 -0.000001 -0.000001 5.588730 -2.658980 1.872650 6.456720 -0.000001 -0.000000 -3.635190 -2.421060 2.665670 12.994200 -0.242716 4.980390 -86.306700 -6.955520 -61.941000 5.348090 -0.000007 -0.000001 -52.312400 -52.130100 -58.250600 24.328600 0.000019 0.000005 5.931050 9.123070 -33.228900 22.291600 -0.000001 0.000005 23.633100 4.683500 13.454400 12.994500 -0.242716 -4.980390 91.435900 -3.869530 -69.622900 -5.348130 -0.000001 -0.000004 -58.013000 -52.149100 -59.865900 -24.328900 0.000322 -0.000009 -19.545300 -23.139000 -42.095200 -22.291500 -0.000108 -0.000004 32.348700 4.869850 9.966490 -2.192480 -6.469440 -0.000000 -174.698000 -10.351100 -1.343530 39.081100 -0.000007 -0.000012 -0.185205 0.282300 33.267500 40.985400 -0.000006 -0.000013 0.569567 4.953070 -70.781400 11.754300 -0.000000 0.000003 -0.000140 -0.001368 -16.629600 -2.192510 6.469440 -0.000001 175.241000 17.706900 179.995000 -39.081100 -0.002282 -0.040193 -0.065772 0.109253 32.300900 -40.985400 0.000008 0.000006 4.501060 10.230800 -71.252000 -11.754300 -0.000006 -0.000006 -0.002304 -0.032457 -17.892900
